<?xml version="1.0" encoding="utf-8"?>
<!-- Generator: Adobe Illustrator 27.0.0, SVG Export Plug-In . SVG Version: 6.00 Build 0)  -->
<svg version="1.1" id="Layer_1" xmlns="http://www.w3.org/2000/svg" xmlns:xlink="http://www.w3.org/1999/xlink" x="0px" y="0px"
	 viewBox="0 0 121 56.3" style="enable-background:new 0 0 121 56.3;" xml:space="preserve">
<style type="text/css">
	.st0{fill:#15CFE5;}
	.st1{fill:#FFFFFF;}
</style>
<g>
	<g>
		<path class="st0" d="M49.8,32.4c-1.1,0.5-2.5,0.8-4.2,0.8c-2.3,0-4-0.7-5.3-2s-1.9-3.1-1.9-5.3c0-2.4,0.7-4.3,2.2-5.7
			c1.5-1.5,3.4-2.2,5.7-2.2c1.4,0,2.7,0.2,3.6,0.5v3.2c-1-0.6-2.1-0.9-3.4-0.9c-1.4,0-2.5,0.4-3.4,1.3s-1.3,2.1-1.3,3.5
			s0.4,2.6,1.2,3.4s1.9,1.3,3.2,1.3s2.5-0.3,3.6-0.9C49.8,29.4,49.8,32.4,49.8,32.4z"/>
		<path class="st0" d="M62.2,32.9H59v-6c0-1.5-0.6-2.3-1.7-2.3c-0.6,0-1,0.2-1.4,0.6s-0.5,1-0.5,1.6v6h-3.3V17.3h3.3v6.6l0,0
			c0.8-1.2,1.9-1.8,3.2-1.8c2.4,0,3.6,1.4,3.6,4.3V32.9z"/>
		<path class="st0" d="M74.2,28.6h-6.9c0.1,1.5,1.1,2.3,2.9,2.3c1.2,0,2.2-0.3,3.1-0.8v2.3c-1,0.5-2.2,0.8-3.8,0.8
			c-1.7,0-3-0.5-4-1.4c-0.9-0.9-1.4-2.3-1.4-4c0-1.8,0.5-3.1,1.5-4.2c1-1,2.3-1.5,3.7-1.5c1.5,0,2.7,0.5,3.6,1.4
			c0.8,0.9,1.3,2.2,1.3,3.7C74.2,27.2,74.2,28.6,74.2,28.6z M71.2,26.6c0-1.5-0.6-2.3-1.8-2.3c-0.5,0-1,0.2-1.4,0.6s-0.6,1-0.7,1.6
			L71.2,26.6L71.2,26.6z"/>
		<path class="st0" d="M84.9,32.9h-3.1v-1.5l0,0c-0.7,1.2-1.8,1.8-3.1,1.8c-1,0-1.8-0.3-2.4-0.9c-0.6-0.6-0.9-1.4-0.9-2.3
			c0-2,1.2-3.2,3.6-3.5l2.9-0.4c0-1.2-0.6-1.7-1.9-1.7s-2.5,0.4-3.6,1.1V23c0.5-0.2,1.1-0.4,1.9-0.6s1.5-0.3,2.1-0.3
			c3,0,4.5,1.5,4.5,4.5C84.9,26.6,84.9,32.9,84.9,32.9z M81.9,28.7V28l-2,0.2c-1.1,0.1-1.6,0.6-1.6,1.4c0,0.4,0.1,0.7,0.4,0.9
			c0.3,0.2,0.6,0.4,1,0.4c0.6,0,1.1-0.2,1.5-0.6C81.7,29.8,81.9,29.3,81.9,28.7z"/>
		<path class="st0" d="M90.8,31.7L90.8,31.7v6.1h-3.3V22.4h3.3V24l0,0c0.8-1.2,1.9-1.8,3.4-1.8c1.4,0,2.4,0.5,3.2,1.4
			c0.7,0.9,1.1,2.2,1.1,3.8c0,1.8-0.4,3.2-1.3,4.2c-0.9,1.1-2,1.6-3.5,1.6C92.4,33.2,91.5,32.7,90.8,31.7z M90.7,27.4v0.8
			c0,0.7,0.2,1.3,0.6,1.8s0.9,0.7,1.5,0.7c0.7,0,1.3-0.3,1.7-0.9c0.4-0.6,0.6-1.4,0.6-2.4c0-1.9-0.7-2.8-2.2-2.8
			c-0.7,0-1.2,0.3-1.6,0.8C90.9,25.9,90.7,26.6,90.7,27.4z"/>
	</g>
	<g>
		<path class="st1" d="M43,40.1h-2.8v2h2.6v1.5h-2.6v3.1h-1.8v-8H43V40.1z"/>
		<path class="st1" d="M45.9,44.7c0,0.2,0.1,0.4,0.2,0.6c0.1,0.1,0.3,0.2,0.5,0.2c0.1,0,0.2,0,0.3,0s0.2,0,0.3-0.1v1.2
			c-0.2,0.1-0.4,0.1-0.7,0.1c-0.2,0-0.5,0.1-0.7,0.1s-0.4,0-0.6-0.1c-0.2-0.1-0.4-0.2-0.5-0.3s-0.2-0.3-0.3-0.5s-0.1-0.4-0.1-0.7v-7
			h1.8v6.5H45.9z"/>
		<path class="st1" d="M48.7,40.1c-0.3,0-0.5-0.1-0.7-0.3s-0.3-0.4-0.3-0.7s0.1-0.5,0.3-0.6s0.4-0.3,0.7-0.3s0.5,0.1,0.7,0.3
			s0.3,0.4,0.3,0.6c0,0.3-0.1,0.5-0.3,0.7C49.3,40,49,40.1,48.7,40.1z M49.6,44.7c0,0.2,0.1,0.4,0.2,0.6c0.1,0.1,0.3,0.2,0.5,0.2
			c0.1,0,0.2,0,0.3,0s0.2,0,0.3-0.1v1.2c-0.2,0.1-0.4,0.1-0.7,0.1c-0.2,0-0.5,0.1-0.7,0.1s-0.4,0-0.6-0.1c-0.2-0.1-0.4-0.2-0.5-0.3
			s-0.2-0.3-0.3-0.5S48,45.5,48,45.2V41h1.8v3.7H49.6z"/>
		<path class="st1" d="M57.2,46c0,1.1-0.3,1.9-0.9,2.5s-1.5,0.9-2.7,0.9c-0.8,0-1.4-0.1-1.8-0.3v-1.5c0.6,0.3,1.2,0.5,1.8,0.5
			s1.1-0.2,1.4-0.5c0.3-0.3,0.5-0.7,0.5-1.3v-0.5l0,0c-0.4,0.6-1,1-1.8,1c-0.7,0-1.3-0.3-1.7-0.8s-0.6-1.2-0.6-2.1
			c0-1,0.2-1.7,0.7-2.3s1.1-0.9,1.9-0.9c0.7,0,1.2,0.3,1.6,0.8l0,0v-0.7h1.8V46C57.4,46,57.2,46,57.2,46z M55.4,43.9v-0.5
			c0-0.4-0.1-0.7-0.3-0.9c-0.2-0.3-0.5-0.4-0.8-0.4c-0.4,0-0.7,0.2-0.9,0.5s-0.3,0.7-0.3,1.3c0,0.5,0.1,0.9,0.3,1.1s0.5,0.4,0.9,0.4
			s0.7-0.1,0.9-0.4C55.3,44.8,55.4,44.4,55.4,43.9z"/>
		<path class="st1" d="M64.1,46.7h-1.8v-3.3c0-0.8-0.3-1.3-0.9-1.3c-0.3,0-0.6,0.1-0.8,0.4c-0.2,0.2-0.3,0.5-0.3,0.9v3.3h-1.8v-8.5
			h1.8v3.6l0,0c0.4-0.7,1-1,1.8-1c1.3,0,1.9,0.8,1.9,2.3L64.1,46.7L64.1,46.7z"/>
		<path class="st1" d="M69,46.6c-0.3,0.1-0.7,0.2-1.2,0.2c-1.2,0-1.9-0.6-1.9-1.9v-2.6H65V41h0.9v-1.2l1.8-0.5V41H69v1.3h-1.3v2.3
			c0,0.6,0.2,0.9,0.7,0.9c0.2,0,0.4-0.1,0.6-0.2V46.6z"/>
		<path class="st1" d="M69.6,46.5v-1.4c0.3,0.2,0.6,0.3,0.9,0.4c0.3,0.1,0.6,0.1,0.8,0.1c0.3,0,0.6,0,0.7-0.1
			c0.2-0.1,0.3-0.2,0.3-0.4c0-0.1,0-0.2-0.1-0.3s-0.2-0.1-0.3-0.2c-0.1-0.1-0.3-0.1-0.4-0.2c-0.2,0-0.3-0.1-0.4-0.2
			c-0.2-0.1-0.4-0.2-0.6-0.3s-0.3-0.2-0.4-0.3s-0.2-0.3-0.3-0.5c-0.1-0.2-0.1-0.4-0.1-0.6c0-0.3,0.1-0.6,0.2-0.8s0.3-0.4,0.6-0.6
			c0.2-0.1,0.5-0.3,0.8-0.3c0.3-0.1,0.6-0.1,0.9-0.1s0.5,0,0.8,0.1c0.3,0,0.5,0.1,0.8,0.2v1.4c-0.2-0.1-0.5-0.2-0.7-0.3
			C72.8,42,72.6,42,72.3,42c-0.1,0-0.2,0-0.3,0c-0.1,0-0.2,0.1-0.3,0.1c-0.1,0-0.1,0.1-0.2,0.2c0,0.1-0.1,0.1-0.1,0.2
			c0,0.1,0,0.2,0.1,0.3s0.2,0.1,0.3,0.2c0.1,0.1,0.2,0.1,0.4,0.1c0.1,0,0.3,0.1,0.4,0.1c0.2,0.1,0.4,0.2,0.6,0.3s0.4,0.2,0.5,0.3
			s0.2,0.3,0.3,0.5c0.1,0.2,0.1,0.4,0.1,0.6c0,0.3-0.1,0.6-0.2,0.9c-0.1,0.2-0.3,0.4-0.6,0.6c-0.2,0.2-0.5,0.3-0.8,0.3
			c-0.3,0.1-0.6,0.1-1,0.1C70.7,46.8,70.1,46.7,69.6,46.5z"/>
	</g>
	<g>
		<path class="st1" d="M79.8,40.1H77v2h2.6v1.5H77v3.1h-1.8v-8h4.6C79.8,38.7,79.8,40.1,79.8,40.1z"/>
		<path class="st1" d="M81.8,40.1c-0.3,0-0.5-0.1-0.7-0.3s-0.3-0.4-0.3-0.7s0.1-0.5,0.3-0.6c0.2-0.2,0.4-0.3,0.7-0.3
			c0.3,0,0.5,0.1,0.7,0.3s0.3,0.4,0.3,0.6c0,0.3-0.1,0.5-0.3,0.7C82.4,40,82.1,40.1,81.8,40.1z M82.7,44.7c0,0.2,0.1,0.4,0.2,0.6
			c0.1,0.1,0.3,0.2,0.5,0.2c0.1,0,0.2,0,0.3,0c0.1,0,0.2,0,0.3-0.1v1.2c-0.2,0.1-0.4,0.1-0.7,0.1c-0.2,0-0.5,0.1-0.7,0.1
			s-0.4,0-0.6-0.1s-0.4-0.2-0.5-0.3s-0.2-0.3-0.3-0.5s-0.1-0.4-0.1-0.7V41h1.8v3.7H82.7z"/>
		<path class="st1" d="M88.4,42.6c-0.2-0.1-0.5-0.2-0.7-0.2c-0.4,0-0.7,0.1-0.9,0.4c-0.2,0.3-0.3,0.7-0.3,1.1v2.7h-1.8v-5.7h1.8V42
			l0,0c0.3-0.8,0.8-1.2,1.5-1.2c0.2,0,0.3,0,0.4,0.1V42.6z"/>
		<path class="st1" d="M88.9,46.5v-1.4c0.3,0.2,0.6,0.3,0.9,0.4c0.3,0.1,0.6,0.1,0.8,0.1c0.3,0,0.6,0,0.7-0.1
			c0.2-0.1,0.3-0.2,0.3-0.4c0-0.1,0-0.2-0.1-0.3s-0.2-0.1-0.3-0.2c-0.1-0.1-0.3-0.1-0.4-0.2c-0.2,0-0.3-0.1-0.4-0.2
			c-0.3,0-0.5,0-0.7-0.1s-0.3-0.2-0.4-0.3s-0.2-0.3-0.3-0.5c-0.1-0.2-0.1-0.4-0.1-0.6c0-0.3,0.1-0.6,0.2-0.8s0.3-0.4,0.6-0.6
			c0.2-0.1,0.5-0.3,0.8-0.3c0.3-0.1,0.6-0.1,0.9-0.1s0.5,0,0.8,0.1c0.3,0,0.5,0.1,0.8,0.2v1.4c-0.2-0.1-0.5-0.2-0.7-0.3
			c-0.3-0.1-0.5-0.1-0.8-0.1c-0.1,0-0.2,0-0.3,0c-0.1,0-0.2,0.1-0.3,0.1c-0.1,0-0.1,0.1-0.2,0.2c0,0.1-0.1,0.1-0.1,0.2
			c0,0.1,0,0.2,0.1,0.3s0.2,0.1,0.3,0.2c0.1,0.1,0.2,0.1,0.4,0.1c0.1,0,0.3,0.1,0.4,0.1c0.2,0.1,0.4,0.2,0.6,0.3s0.4,0.2,0.5,0.3
			s0.2,0.3,0.3,0.5c0.1,0.2,0.1,0.4,0.1,0.6c0,0.3-0.1,0.6-0.2,0.9c-0.1,0.2-0.3,0.4-0.6,0.6c-0.2,0.2-0.5,0.3-0.8,0.3
			c-0.3,0.1-0.6,0.1-1,0.1C90,46.8,89.4,46.7,88.9,46.5z"/>
		<path class="st1" d="M97.8,46.6c-0.3,0.1-0.7,0.2-1.2,0.2c-1.2,0-1.9-0.6-1.9-1.9v-2.6h-0.9V41h0.9v-1.2l1.8-0.5V41h1.3v1.3h-1.3
			v2.3c0,0.6,0.2,0.9,0.7,0.9c0.2,0,0.4-0.1,0.6-0.2V46.6z"/>
	</g>
	<path class="st1" d="M25.4,46.7c-5-8.7,4.1-22.6,19.7-32.4c2.7-1.7,7.9-5.4,11-6.9c-4.7,1.9-11.2,5.3-16.1,7.7
		c-16.8,8.4-26.9,22.3-22.5,31c2.6,5.1,9.5,7.3,18.3,6.6C31,52,27.3,50,25.4,46.7z"/>
	<g>
		<path class="st0" d="M33.3,25.9h1.3v-0.2c0.8,1.9,1.3,3.9,1.3,6h-6.4c0-0.3,0-0.6,0-0.9c-0.4,0.7-0.9,1.4-1.2,2.1l0,0
			c-0.1,2.9-0.5,5.7-1.2,8.1h-0.7c0,0.4,0.1,0.8,0.1,1.2h0.1c0,0.1-0.1,0.2-0.1,0.2c0.1,0.6,0.3,1.3,0.5,1.9
			c0.3-0.7,0.6-1.4,0.9-2.2h4.7c-1.2,1.7-2.8,3.2-4.6,4.3c0.2,0.3,0.5,0.7,0.8,0.9C33.7,44,37,38.5,37,32.1c0-3-0.7-5.8-2-8.3
			C34.5,24.7,33.9,25.3,33.3,25.9z M33.5,41h-5.1c0.7-2.5,1.1-5.3,1.2-8.1H36C35.8,35.9,34.9,38.7,33.5,41z"/>
		<path class="st0" d="M16.8,49c-2.5-0.9-4.4-3.4-5.7-6.7h3.2c0-0.4,0-0.8,0-1.2h-3.5C10,38.6,9.6,35.8,9.6,33h7.1
			c0.2-0.4,0.4-0.8,0.7-1.2H9.6c0-2,0.2-3.9,0.6-5.8h8.2v4.2c0.4-0.5,0.8-1.1,1.2-1.6v-2.7H22c0.4-0.4,0.8-0.8,1.2-1.2h-3.6v-9.4
			c3.1,0.3,5.5,2.9,6.9,6.5c0.3-0.3,0.7-0.5,1-0.8c-0.8-2-1.9-3.7-3.3-4.9c2.1,0.7,4,1.8,5.7,3.2c0.3-0.2,0.7-0.5,1.1-0.7
			c-3.1-2.7-7-4.4-11.4-4.5l0,0h-1.2l0,0C8.6,14.5,0.7,22.5,0.7,32.3c0,9.9,7.9,17.9,17.7,18.2C17.8,50,17.3,49.5,16.8,49z
			 M18.3,15.4v9.4h-7.9C11.7,19.7,14.4,15.8,18.3,15.4z M13.7,16.2c-1.1,0.9-2,2.2-2.8,3.8c-0.7,1.4-1.3,3-1.7,4.8H3.7
			C5.8,20.7,9.3,17.6,13.7,16.2z M3.2,25.9h5.7c-0.4,1.8-0.6,3.8-0.6,5.8H1.9C2,29.7,2.5,27.7,3.2,25.9z M1.9,32.9h6.4
			c0,2.8,0.4,5.6,1.2,8.1H4.3C2.9,38.7,2.1,35.9,1.9,32.9z M5.1,42.3h4.7c0.9,2.5,2.1,4.7,3.8,6.2C10.2,47.4,7.2,45.1,5.1,42.3z"/>
	</g>
	<g>
		<g>
			<path class="st1" d="M34,13.3c2.3-1.1,4.5-2.2,6.8-3.4c-1.4-1.3-2.7-2.5-4-3.8c0.2-0.3,0.4-0.6,0.7-0.9c0.1-0.1,0.3-0.1,0.5-0.1
				c2.6,0.7,5.2,1.3,7.8,2c0.2,0.1,0.5,0.1,0.8,0c2-1,4.1-2,6.1-3c0.7-0.3,1.4-0.5,2.2-0.3c0.6,0.1,0.8,0.5,0.5,1
				c-0.3,0.7-0.9,1.3-1.6,1.6c-4.7,2.3-9.4,4.5-14.2,6.8c-0.4,0.2-0.9,0.3-1.4,0.3c-1.2,0-2.5,0-3.7,0C34.3,13.5,34.2,13.4,34,13.3
				L34,13.3z"/>
			<path class="st1" d="M31.1,10.5c0.5-0.7,0.5-0.7,1.3-0.5c1,0.3,2,0.7,3.1,1c-0.5,0.3-0.9,0.5-1.4,0.7c-1,0.5-1,0.5-1.9-0.3
				C31.9,11.2,31.5,10.9,31.1,10.5z"/>
		</g>
	</g>
</g>
</svg>
